<svg width="595" height="210" viewBox="0 0 595 210" fill="none" xmlns="http://www.w3.org/2000/svg">
<path d="M575.25 348C575.25 491.365 484.76 607.25 373.5 607.25C262.24 607.25 171.75 491.365 171.75 348C171.75 276.428 204.151 209.832 245.675 150.96C278.014 105.111 315.835 64.0138 348.123 28.9285C357.085 19.1904 365.62 9.91549 373.494 1.13068C380.223 8.79197 388.176 17.489 396.971 27.1064C425.287 58.0706 462.328 98.5759 495.327 144.776C538.862 205.726 575.25 276.441 575.25 348Z" stroke="white" stroke-width="1.5"/>
<path d="M518.25 348C518.25 491.365 427.76 607.25 316.5 607.25C205.24 607.25 114.75 491.365 114.75 348C114.75 276.428 147.151 209.832 188.675 150.96C221.014 105.111 258.835 64.0138 291.123 28.9285C300.085 19.1904 308.62 9.91549 316.494 1.13068C323.223 8.79197 331.176 17.489 339.971 27.1064C368.287 58.0706 405.328 98.5759 438.327 144.776C481.862 205.726 518.25 276.441 518.25 348Z" stroke="white" stroke-width="1.5"/>
<path d="M461.25 348C461.25 491.365 370.76 607.25 259.5 607.25C148.24 607.25 57.75 491.365 57.75 348C57.75 276.428 90.1505 209.832 131.675 150.96C164.014 105.111 201.835 64.0138 234.123 28.9285C243.085 19.1904 251.62 9.91549 259.494 1.13068C266.223 8.79197 274.176 17.489 282.971 27.1064C311.287 58.0706 348.328 98.5759 381.327 144.776C424.862 205.726 461.25 276.441 461.25 348Z" stroke="white" stroke-width="1.5"/>
<path d="M404.25 348C404.25 491.365 313.76 607.25 202.5 607.25C91.2402 607.25 0.75 491.365 0.75 348C0.75 276.428 33.1505 209.832 74.6754 150.96C107.014 105.111 144.835 64.0138 177.123 28.9285C186.085 19.1904 194.62 9.91549 202.494 1.13068C209.223 8.79197 217.176 17.489 225.971 27.1064C254.287 58.0706 291.328 98.5759 324.327 144.776C367.862 205.726 404.25 276.441 404.25 348Z" stroke="white" stroke-width="1.5"/>
<path d="M689.25 348C689.25 491.365 598.76 607.25 487.5 607.25C376.24 607.25 285.75 491.365 285.75 348C285.75 276.428 318.151 209.832 359.675 150.96C392.014 105.111 429.835 64.0138 462.123 28.9285C471.085 19.1904 479.62 9.91549 487.494 1.13068C494.223 8.79197 502.176 17.489 510.971 27.1064C539.287 58.0706 576.328 98.5759 609.327 144.776C652.862 205.726 689.25 276.441 689.25 348Z" stroke="white" stroke-width="1.5"/>
<path d="M632.25 348C632.25 491.365 541.76 607.25 430.5 607.25C319.24 607.25 228.75 491.365 228.75 348C228.75 276.428 261.151 209.832 302.675 150.96C335.014 105.111 372.835 64.0138 405.123 28.9285C414.085 19.1904 422.62 9.91549 430.494 1.13068C437.223 8.79197 445.176 17.489 453.971 27.1064C482.287 58.0706 519.328 98.5759 552.327 144.776C595.862 205.726 632.25 276.441 632.25 348Z" stroke="white" stroke-width="1.5"/>
</svg>
