<svg xmlns="http://www.w3.org/2000/svg" viewBox="0 0 67 64">
    <path fill="#FFF" fill-rule="nonzero" d="M67 39.35V64H52.589V41c0-5.778-2.084-9.72-7.3-9.72-3.983 0-6.353 2.657-7.395 5.227-.38.92-.478 2.198-.478 3.485V64H23s.194-38.954 0-42.99h14.415v6.094c-.03.045-.068.094-.095.139h.095v-.14C39.33 24.18 42.75 20 50.405 20 59.89 20 67 26.144 67 39.35zM8.049 0C3.183 0 0 3.239 0 7.497 0 11.663 3.09 15 7.86 15h.095C12.915 15 16 11.664 16 7.497 15.907 3.24 12.915 0 8.049 0zM1 64h14V21H1v43z"/>
</svg>
